<svg version="1.1" viewBox="0.0 0.0 340.40419947506564 372.4698162729659" fill="none" stroke="none" stroke-linecap="square" stroke-miterlimit="10" xmlns:xlink="http://www.w3.org/1999/xlink" xmlns="http://www.w3.org/2000/svg"><clipPath id="p.0"><path d="m0 0l340.4042 0l0 372.46982l-340.4042 0l0 -372.46982z" clip-rule="nonzero"/></clipPath><g clip-path="url(#p.0)"><path fill="#000000" fill-opacity="0.0" d="m0 0l340.4042 0l0 372.46982l-340.4042 0z" fill-rule="evenodd"/><path fill="#000000" fill-opacity="0.0" d="m25.839895 371.1076l0 -317.66928" fill-rule="evenodd"/><path stroke="#000000" stroke-width="3.0" stroke-linejoin="round" stroke-linecap="butt" d="m25.839895 371.1076l0 -317.66928" fill-rule="evenodd"/><path fill="#000000" fill-opacity="0.0" d="m302.27298 371.1076l0 -317.66928" fill-rule="evenodd"/><path stroke="#000000" stroke-width="3.0" stroke-linejoin="round" stroke-linecap="butt" d="m302.27298 371.1076l0 -317.66928" fill-rule="evenodd"/><path fill="#000000" fill-opacity="0.0" d="m117.32968 371.1076l0 -317.66928" fill-rule="evenodd"/><path stroke="#000000" stroke-width="3.0" stroke-linejoin="round" stroke-linecap="butt" d="m117.32968 371.1076l0 -317.66928" fill-rule="evenodd"/><path fill="#000000" fill-opacity="0.0" d="m210.1248 371.1076l0 -317.66928" fill-rule="evenodd"/><path stroke="#000000" stroke-width="3.0" stroke-linejoin="round" stroke-linecap="butt" d="m210.1248 371.1076l0 -317.66928" fill-rule="evenodd"/><path fill="#000000" fill-opacity="0.0" d="m28.38334 53.422573l311.3386 0" fill-rule="evenodd"/><path stroke="#ff0000" stroke-width="3.0" stroke-linejoin="round" stroke-linecap="butt" d="m28.38334 53.422573l311.3386 0" fill-rule="evenodd"/><path fill="#000000" fill-opacity="0.0" d="m28.38334 329.85303l311.3386 0" fill-rule="evenodd"/><path stroke="#ff0000" stroke-width="3.0" stroke-linejoin="round" stroke-linecap="butt" d="m28.38334 329.85303l311.3386 0" fill-rule="evenodd"/><path fill="#000000" fill-opacity="0.0" d="m28.38334 144.91148l311.3386 0" fill-rule="evenodd"/><path stroke="#ff0000" stroke-width="3.0" stroke-linejoin="round" stroke-linecap="butt" d="m28.38334 144.91148l311.3386 0" fill-rule="evenodd"/><path fill="#000000" fill-opacity="0.0" d="m28.38334 237.70573l311.3386 0" fill-rule="evenodd"/><path stroke="#ff0000" stroke-width="3.0" stroke-linejoin="round" stroke-linecap="butt" d="m28.38334 237.70573l311.3386 0" fill-rule="evenodd"/><path fill="#ffffff" d="m0.96171105 33.511074l25.107754 19.628735l-25.107754 19.628738z" fill-rule="evenodd"/><path stroke="#000000" stroke-width="3.0" stroke-linejoin="round" stroke-linecap="butt" d="m0.96171105 33.511074l25.107754 19.628735l-25.107754 19.628738z" fill-rule="evenodd"/><path fill="#000000" fill-opacity="0.0" d="m26.069466 53.13981l-0.043388367 20.662842" fill-rule="evenodd"/><path stroke="#000000" stroke-width="3.0" stroke-linejoin="round" stroke-linecap="butt" d="m26.069466 53.13981l-0.043388367 20.662842" fill-rule="evenodd"/><path fill="#000000" fill-opacity="0.0" d="m26.069466 53.13981l-0.043388367 -18.613956" fill-rule="evenodd"/><path stroke="#000000" stroke-width="3.0" stroke-linejoin="round" stroke-linecap="butt" d="m26.069466 53.13981l-0.043388367 -18.613956" fill-rule="evenodd"/><path fill="#000000" fill-opacity="0.0" d="m5.644105 26.41245l11.758412 -25.031229" fill-rule="evenodd"/><path stroke="#000000" stroke-width="3.0" stroke-linejoin="round" stroke-linecap="butt" d="m5.6441045 26.41245l4.105252 -8.739235" fill-rule="evenodd"/><path fill="#000000" stroke="#000000" stroke-width="3.0" stroke-linecap="butt" d="m14.23436 19.780046l1.303462 -14.429274l-10.273468 10.215615z" fill-rule="evenodd"/><path fill="#000000" fill-opacity="0.0" d="m21.073708 26.41245l11.758411 -25.031229" fill-rule="evenodd"/><path stroke="#000000" stroke-width="3.0" stroke-linejoin="round" stroke-linecap="butt" d="m21.073708 26.41245l4.1052513 -8.739233" fill-rule="evenodd"/><path fill="#000000" stroke="#000000" stroke-width="3.0" stroke-linecap="butt" d="m29.663961 19.780046l1.3034611 -14.429274l-10.273466 10.215616z" fill-rule="evenodd"/><path fill="#ffffff" d="m91.94247 33.29323l25.107758 19.628735l-25.107758 19.628735z" fill-rule="evenodd"/><path stroke="#000000" stroke-width="3.0" stroke-linejoin="round" stroke-linecap="butt" d="m91.94247 33.29323l25.107758 19.628735l-25.107758 19.628735z" fill-rule="evenodd"/><path fill="#000000" fill-opacity="0.0" d="m117.050224 52.921963l-0.043388367 20.662846" fill-rule="evenodd"/><path stroke="#000000" stroke-width="3.0" stroke-linejoin="round" stroke-linecap="butt" d="m117.050224 52.921963l-0.043388367 20.662846" fill-rule="evenodd"/><path fill="#000000" fill-opacity="0.0" d="m117.050224 52.921963l-0.043388367 -18.613956" fill-rule="evenodd"/><path stroke="#000000" stroke-width="3.0" stroke-linejoin="round" stroke-linecap="butt" d="m117.050224 52.921963l-0.043388367 -18.613956" fill-rule="evenodd"/><path fill="#000000" fill-opacity="0.0" d="m96.62486 25.031435l11.758415 -25.031227" fill-rule="evenodd"/><path stroke="#000000" stroke-width="3.0" stroke-linejoin="round" stroke-linecap="butt" d="m96.62487 25.031437l4.1052475 -8.739231" fill-rule="evenodd"/><path fill="#000000" stroke="#000000" stroke-width="3.0" stroke-linecap="butt" d="m105.21512 18.399033l1.3034592 -14.429274l-10.273468 10.215617z" fill-rule="evenodd"/><path fill="#000000" fill-opacity="0.0" d="m112.05447 25.031435l11.758408 -25.031227" fill-rule="evenodd"/><path stroke="#000000" stroke-width="3.0" stroke-linejoin="round" stroke-linecap="butt" d="m112.05446 25.031437l4.105255 -8.739235" fill-rule="evenodd"/><path fill="#000000" stroke="#000000" stroke-width="3.0" stroke-linecap="butt" d="m120.64472 18.39903l1.3034592 -14.429273l-10.273468 10.215614z" fill-rule="evenodd"/><path fill="#ffffff" d="m184.92366 33.511074l25.107758 19.628735l-25.107758 19.628738z" fill-rule="evenodd"/><path stroke="#000000" stroke-width="3.0" stroke-linejoin="round" stroke-linecap="butt" d="m184.92366 33.511074l25.107758 19.628735l-25.107758 19.628738z" fill-rule="evenodd"/><path fill="#000000" fill-opacity="0.0" d="m210.03142 53.13981l-0.043395996 20.662842" fill-rule="evenodd"/><path stroke="#000000" stroke-width="3.0" stroke-linejoin="round" stroke-linecap="butt" d="m210.03142 53.13981l-0.043395996 20.662842" fill-rule="evenodd"/><path fill="#000000" fill-opacity="0.0" d="m210.03142 53.13981l-0.043395996 -18.613956" fill-rule="evenodd"/><path stroke="#000000" stroke-width="3.0" stroke-linejoin="round" stroke-linecap="butt" d="m210.03142 53.13981l-0.043395996 -18.613956" fill-rule="evenodd"/><path fill="#000000" fill-opacity="0.0" d="m189.60605 26.41245l11.758408 -25.031229" fill-rule="evenodd"/><path stroke="#000000" stroke-width="3.0" stroke-linejoin="round" stroke-linecap="butt" d="m189.60605 26.41245l4.105255 -8.739233" fill-rule="evenodd"/><path fill="#000000" stroke="#000000" stroke-width="3.0" stroke-linecap="butt" d="m198.1963 19.780046l1.3034668 -14.429274l-10.273468 10.215616z" fill-rule="evenodd"/><path fill="#000000" fill-opacity="0.0" d="m205.03566 26.41245l11.758408 -25.031229" fill-rule="evenodd"/><path stroke="#000000" stroke-width="3.0" stroke-linejoin="round" stroke-linecap="butt" d="m205.03566 26.41245l4.105255 -8.739233" fill-rule="evenodd"/><path fill="#000000" stroke="#000000" stroke-width="3.0" stroke-linecap="butt" d="m213.62592 19.780046l1.3034515 -14.429274l-10.273468 10.215616z" fill-rule="evenodd"/><path fill="#ffffff" d="m277.30487 33.29323l25.107758 19.628735l-25.107758 19.628735z" fill-rule="evenodd"/><path stroke="#000000" stroke-width="3.0" stroke-linejoin="round" stroke-linecap="butt" d="m277.30487 33.29323l25.107758 19.628735l-25.107758 19.628735z" fill-rule="evenodd"/><path fill="#000000" fill-opacity="0.0" d="m302.41263 52.921963l-0.043395996 20.662846" fill-rule="evenodd"/><path stroke="#000000" stroke-width="3.0" stroke-linejoin="round" stroke-linecap="butt" d="m302.41263 52.921963l-0.043395996 20.662846" fill-rule="evenodd"/><path fill="#000000" fill-opacity="0.0" d="m302.41263 52.921963l-0.043395996 -18.613956" fill-rule="evenodd"/><path stroke="#000000" stroke-width="3.0" stroke-linejoin="round" stroke-linecap="butt" d="m302.41263 52.921963l-0.043395996 -18.613956" fill-rule="evenodd"/><path fill="#000000" fill-opacity="0.0" d="m281.98724 26.194603l11.758423 -25.031229" fill-rule="evenodd"/><path stroke="#000000" stroke-width="3.0" stroke-linejoin="round" stroke-linecap="butt" d="m281.98727 26.194603l4.105255 -8.739233" fill-rule="evenodd"/><path fill="#000000" stroke="#000000" stroke-width="3.0" stroke-linecap="butt" d="m290.5775 19.562199l1.3034668 -14.429274l-10.273468 10.215616z" fill-rule="evenodd"/><path fill="#000000" fill-opacity="0.0" d="m297.41687 26.194603l11.758392 -25.031229" fill-rule="evenodd"/><path stroke="#000000" stroke-width="3.0" stroke-linejoin="round" stroke-linecap="butt" d="m297.41684 26.194603l4.105255 -8.739237" fill-rule="evenodd"/><path fill="#000000" stroke="#000000" stroke-width="3.0" stroke-linecap="butt" d="m306.0071 19.562197l1.3034668 -14.429273l-10.273468 10.2156105z" fill-rule="evenodd"/><path fill="#ffffff" d="m0.96171105 125.20882l25.107754 19.628738l-25.107754 19.628738z" fill-rule="evenodd"/><path stroke="#000000" stroke-width="3.0" stroke-linejoin="round" stroke-linecap="butt" d="m0.96171105 125.20882l25.107754 19.628738l-25.107754 19.628738z" fill-rule="evenodd"/><path fill="#000000" fill-opacity="0.0" d="m26.069466 144.83755l-0.043388367 20.662842" fill-rule="evenodd"/><path stroke="#000000" stroke-width="3.0" stroke-linejoin="round" stroke-linecap="butt" d="m26.069466 144.83755l-0.043388367 20.662842" fill-rule="evenodd"/><path fill="#000000" fill-opacity="0.0" d="m26.069466 144.83755l-0.043388367 -18.613953" fill-rule="evenodd"/><path stroke="#000000" stroke-width="3.0" stroke-linejoin="round" stroke-linecap="butt" d="m26.069466 144.83755l-0.043388367 -18.613953" fill-rule="evenodd"/><path fill="#000000" fill-opacity="0.0" d="m5.644105 118.11019l11.758412 -25.031227" fill-rule="evenodd"/><path stroke="#000000" stroke-width="3.0" stroke-linejoin="round" stroke-linecap="butt" d="m5.6441045 118.1102l4.105252 -8.739235" fill-rule="evenodd"/><path fill="#000000" stroke="#000000" stroke-width="3.0" stroke-linecap="butt" d="m14.23436 111.47779l1.303462 -14.4292755l-10.273468 10.215614z" fill-rule="evenodd"/><path fill="#000000" fill-opacity="0.0" d="m21.073708 118.11019l11.758411 -25.031227" fill-rule="evenodd"/><path stroke="#000000" stroke-width="3.0" stroke-linejoin="round" stroke-linecap="butt" d="m21.073708 118.1102l4.1052513 -8.739235" fill-rule="evenodd"/><path fill="#000000" stroke="#000000" stroke-width="3.0" stroke-linecap="butt" d="m29.663963 111.47779l1.3034592 -14.4292755l-10.273466 10.215614z" fill-rule="evenodd"/><path fill="#ffffff" d="m91.94247 125.67162l25.107758 19.628746l-25.107758 19.628723z" fill-rule="evenodd"/><path stroke="#000000" stroke-width="3.0" stroke-linejoin="round" stroke-linecap="butt" d="m91.94247 125.67162l25.107758 19.628746l-25.107758 19.628723z" fill-rule="evenodd"/><path fill="#000000" fill-opacity="0.0" d="m117.050224 145.30037l-0.043388367 20.662842" fill-rule="evenodd"/><path stroke="#000000" stroke-width="3.0" stroke-linejoin="round" stroke-linecap="butt" d="m117.050224 145.30037l-0.043388367 20.662842" fill-rule="evenodd"/><path fill="#000000" fill-opacity="0.0" d="m117.050224 145.30037l-0.043388367 -18.61396" fill-rule="evenodd"/><path stroke="#000000" stroke-width="3.0" stroke-linejoin="round" stroke-linecap="butt" d="m117.050224 145.30037l-0.043388367 -18.61396" fill-rule="evenodd"/><path fill="#000000" fill-opacity="0.0" d="m96.62486 117.409836l11.758415 -25.031227" fill-rule="evenodd"/><path stroke="#000000" stroke-width="3.0" stroke-linejoin="round" stroke-linecap="butt" d="m96.62487 117.409836l4.1052475 -8.739235" fill-rule="evenodd"/><path fill="#000000" stroke="#000000" stroke-width="3.0" stroke-linecap="butt" d="m105.21512 110.777435l1.3034592 -14.4292755l-10.273468 10.215614z" fill-rule="evenodd"/><path fill="#000000" fill-opacity="0.0" d="m112.05447 117.409836l11.758408 -25.031227" fill-rule="evenodd"/><path stroke="#000000" stroke-width="3.0" stroke-linejoin="round" stroke-linecap="butt" d="m112.05446 117.409836l4.105255 -8.739235" fill-rule="evenodd"/><path fill="#000000" stroke="#000000" stroke-width="3.0" stroke-linecap="butt" d="m120.64472 110.777435l1.3034592 -14.4292755l-10.273468 10.215614z" fill-rule="evenodd"/><path fill="#ffffff" d="m184.92366 125.20882l25.107758 19.628738l-25.107758 19.628738z" fill-rule="evenodd"/><path stroke="#000000" stroke-width="3.0" stroke-linejoin="round" stroke-linecap="butt" d="m184.92366 125.20882l25.107758 19.628738l-25.107758 19.628738z" fill-rule="evenodd"/><path fill="#000000" fill-opacity="0.0" d="m210.03142 144.83755l-0.043395996 20.662842" fill-rule="evenodd"/><path stroke="#000000" stroke-width="3.0" stroke-linejoin="round" stroke-linecap="butt" d="m210.03142 144.83755l-0.043395996 20.662842" fill-rule="evenodd"/><path fill="#000000" fill-opacity="0.0" d="m210.03142 144.83755l-0.043395996 -18.613953" fill-rule="evenodd"/><path stroke="#000000" stroke-width="3.0" stroke-linejoin="round" stroke-linecap="butt" d="m210.03142 144.83755l-0.043395996 -18.613953" fill-rule="evenodd"/><path fill="#000000" fill-opacity="0.0" d="m189.60605 118.11019l11.758408 -25.031227" fill-rule="evenodd"/><path stroke="#000000" stroke-width="3.0" stroke-linejoin="round" stroke-linecap="butt" d="m189.60605 118.1102l4.105255 -8.739235" fill-rule="evenodd"/><path fill="#000000" stroke="#000000" stroke-width="3.0" stroke-linecap="butt" d="m198.1963 111.47779l1.3034668 -14.4292755l-10.273468 10.215622z" fill-rule="evenodd"/><path fill="#000000" fill-opacity="0.0" d="m205.03566 118.11019l11.758408 -25.031227" fill-rule="evenodd"/><path stroke="#000000" stroke-width="3.0" stroke-linejoin="round" stroke-linecap="butt" d="m205.03566 118.1102l4.105255 -8.739235" fill-rule="evenodd"/><path fill="#000000" stroke="#000000" stroke-width="3.0" stroke-linecap="butt" d="m213.62592 111.47779l1.3034515 -14.4292755l-10.273468 10.215622z" fill-rule="evenodd"/><path fill="#ffffff" d="m277.22595 124.990974l25.107727 19.62873l-25.107727 19.628738z" fill-rule="evenodd"/><path stroke="#000000" stroke-width="3.0" stroke-linejoin="round" stroke-linecap="butt" d="m277.22595 124.990974l25.107727 19.62873l-25.107727 19.628738z" fill-rule="evenodd"/><path fill="#000000" fill-opacity="0.0" d="m302.33368 144.6197l-0.04336548 20.662842" fill-rule="evenodd"/><path stroke="#000000" stroke-width="3.0" stroke-linejoin="round" stroke-linecap="butt" d="m302.33368 144.6197l-0.04336548 20.662842" fill-rule="evenodd"/><path fill="#000000" fill-opacity="0.0" d="m302.33368 144.6197l-0.04336548 -18.613953" fill-rule="evenodd"/><path stroke="#000000" stroke-width="3.0" stroke-linejoin="round" stroke-linecap="butt" d="m302.33368 144.6197l-0.04336548 -18.613953" fill-rule="evenodd"/><path fill="#000000" fill-opacity="0.0" d="m281.90833 117.89235l11.758423 -25.031227" fill-rule="evenodd"/><path stroke="#000000" stroke-width="3.0" stroke-linejoin="round" stroke-linecap="butt" d="m281.90836 117.89235l4.1052246 -8.739235" fill-rule="evenodd"/><path fill="#000000" stroke="#000000" stroke-width="3.0" stroke-linecap="butt" d="m290.4986 111.25994l1.3034668 -14.4292755l-10.273468 10.215622z" fill-rule="evenodd"/><path fill="#000000" fill-opacity="0.0" d="m297.33792 117.89235l11.758423 -25.031227" fill-rule="evenodd"/><path stroke="#000000" stroke-width="3.0" stroke-linejoin="round" stroke-linecap="butt" d="m297.33792 117.89235l4.105255 -8.739235" fill-rule="evenodd"/><path fill="#000000" stroke="#000000" stroke-width="3.0" stroke-linecap="butt" d="m305.9282 111.25994l1.3034668 -14.4292755l-10.273468 10.215614z" fill-rule="evenodd"/><path fill="#ffffff" d="m0.96171105 218.18958l25.107754 19.628738l-25.107754 19.628738z" fill-rule="evenodd"/><path stroke="#000000" stroke-width="3.0" stroke-linejoin="round" stroke-linecap="butt" d="m0.96171105 218.18958l25.107754 19.628738l-25.107754 19.628738z" fill-rule="evenodd"/><path fill="#000000" fill-opacity="0.0" d="m26.069466 237.81831l-0.043388367 20.662827" fill-rule="evenodd"/><path stroke="#000000" stroke-width="3.0" stroke-linejoin="round" stroke-linecap="butt" d="m26.069466 237.81831l-0.043388367 20.662827" fill-rule="evenodd"/><path fill="#000000" fill-opacity="0.0" d="m26.069466 237.81831l-0.043388367 -18.613968" fill-rule="evenodd"/><path stroke="#000000" stroke-width="3.0" stroke-linejoin="round" stroke-linecap="butt" d="m26.069466 237.81831l-0.043388367 -18.613968" fill-rule="evenodd"/><path fill="#000000" fill-opacity="0.0" d="m5.644105 211.09094l11.758412 -25.03122" fill-rule="evenodd"/><path stroke="#000000" stroke-width="3.0" stroke-linejoin="round" stroke-linecap="butt" d="m5.6441045 211.09094l4.105252 -8.739243" fill-rule="evenodd"/><path fill="#000000" stroke="#000000" stroke-width="3.0" stroke-linecap="butt" d="m14.23436 204.45854l1.303462 -14.4292755l-10.273468 10.215607z" fill-rule="evenodd"/><path fill="#000000" fill-opacity="0.0" d="m21.073708 211.09094l11.758411 -25.03122" fill-rule="evenodd"/><path stroke="#000000" stroke-width="3.0" stroke-linejoin="round" stroke-linecap="butt" d="m21.073708 211.09094l4.1052513 -8.739243" fill-rule="evenodd"/><path fill="#000000" stroke="#000000" stroke-width="3.0" stroke-linecap="butt" d="m29.663963 204.45854l1.3034592 -14.4292755l-10.273466 10.215607z" fill-rule="evenodd"/><path fill="#ffffff" d="m91.94247 217.97173l25.107758 19.628738l-25.107758 19.628723z" fill-rule="evenodd"/><path stroke="#000000" stroke-width="3.0" stroke-linejoin="round" stroke-linecap="butt" d="m91.94247 217.97173l25.107758 19.628738l-25.107758 19.628723z" fill-rule="evenodd"/><path fill="#000000" fill-opacity="0.0" d="m117.050224 237.60046l-0.043388367 20.662842" fill-rule="evenodd"/><path stroke="#000000" stroke-width="3.0" stroke-linejoin="round" stroke-linecap="butt" d="m117.050224 237.60046l-0.043388367 20.662842" fill-rule="evenodd"/><path fill="#000000" fill-opacity="0.0" d="m117.050224 237.60046l-0.043388367 -18.613968" fill-rule="evenodd"/><path stroke="#000000" stroke-width="3.0" stroke-linejoin="round" stroke-linecap="butt" d="m117.050224 237.60046l-0.043388367 -18.613968" fill-rule="evenodd"/><path fill="#000000" fill-opacity="0.0" d="m96.62486 209.70993l11.758415 -25.03122" fill-rule="evenodd"/><path stroke="#000000" stroke-width="3.0" stroke-linejoin="round" stroke-linecap="butt" d="m96.62487 209.70993l4.1052475 -8.739227" fill-rule="evenodd"/><path fill="#000000" stroke="#000000" stroke-width="3.0" stroke-linecap="butt" d="m105.21512 203.07753l1.3034592 -14.4292755l-10.273468 10.215622z" fill-rule="evenodd"/><path fill="#000000" fill-opacity="0.0" d="m112.05447 209.70993l11.758408 -25.03122" fill-rule="evenodd"/><path stroke="#000000" stroke-width="3.0" stroke-linejoin="round" stroke-linecap="butt" d="m112.05446 209.70993l4.105255 -8.739227" fill-rule="evenodd"/><path fill="#000000" stroke="#000000" stroke-width="3.0" stroke-linecap="butt" d="m120.64472 203.07753l1.3034592 -14.4292755l-10.273468 10.215607z" fill-rule="evenodd"/><path fill="#ffffff" d="m184.92366 218.18958l25.107758 19.628738l-25.107758 19.628738z" fill-rule="evenodd"/><path stroke="#000000" stroke-width="3.0" stroke-linejoin="round" stroke-linecap="butt" d="m184.92366 218.18958l25.107758 19.628738l-25.107758 19.628738z" fill-rule="evenodd"/><path fill="#000000" fill-opacity="0.0" d="m210.03142 237.81831l-0.043395996 20.662827" fill-rule="evenodd"/><path stroke="#000000" stroke-width="3.0" stroke-linejoin="round" stroke-linecap="butt" d="m210.03142 237.81831l-0.043395996 20.662827" fill-rule="evenodd"/><path fill="#000000" fill-opacity="0.0" d="m210.03142 237.81831l-0.043395996 -18.613968" fill-rule="evenodd"/><path stroke="#000000" stroke-width="3.0" stroke-linejoin="round" stroke-linecap="butt" d="m210.03142 237.81831l-0.043395996 -18.613968" fill-rule="evenodd"/><path fill="#000000" fill-opacity="0.0" d="m189.60605 211.09094l11.758408 -25.03122" fill-rule="evenodd"/><path stroke="#000000" stroke-width="3.0" stroke-linejoin="round" stroke-linecap="butt" d="m189.60605 211.09094l4.105255 -8.739243" fill-rule="evenodd"/><path fill="#000000" stroke="#000000" stroke-width="3.0" stroke-linecap="butt" d="m198.1963 204.45854l1.3034668 -14.4292755l-10.273468 10.215607z" fill-rule="evenodd"/><path fill="#000000" fill-opacity="0.0" d="m205.03566 211.09094l11.758408 -25.03122" fill-rule="evenodd"/><path stroke="#000000" stroke-width="3.0" stroke-linejoin="round" stroke-linecap="butt" d="m205.03566 211.09094l4.105255 -8.739243" fill-rule="evenodd"/><path fill="#000000" stroke="#000000" stroke-width="3.0" stroke-linecap="butt" d="m213.62592 204.45854l1.3034515 -14.4292755l-10.273468 10.215607z" fill-rule="evenodd"/><path fill="#ffffff" d="m277.22595 217.97173l25.107727 19.628738l-25.107727 19.628723z" fill-rule="evenodd"/><path stroke="#000000" stroke-width="3.0" stroke-linejoin="round" stroke-linecap="butt" d="m277.22595 217.97173l25.107727 19.628738l-25.107727 19.628723z" fill-rule="evenodd"/><path fill="#000000" fill-opacity="0.0" d="m302.33368 237.60046l-0.04336548 20.662842" fill-rule="evenodd"/><path stroke="#000000" stroke-width="3.0" stroke-linejoin="round" stroke-linecap="butt" d="m302.33368 237.60046l-0.04336548 20.662842" fill-rule="evenodd"/><path fill="#000000" fill-opacity="0.0" d="m302.33368 237.60046l-0.04336548 -18.613968" fill-rule="evenodd"/><path stroke="#000000" stroke-width="3.0" stroke-linejoin="round" stroke-linecap="butt" d="m302.33368 237.60046l-0.04336548 -18.613968" fill-rule="evenodd"/><path fill="#000000" fill-opacity="0.0" d="m281.90833 210.8731l11.758423 -25.03122" fill-rule="evenodd"/><path stroke="#000000" stroke-width="3.0" stroke-linejoin="round" stroke-linecap="butt" d="m281.90836 210.8731l4.1052246 -8.739227" fill-rule="evenodd"/><path fill="#000000" stroke="#000000" stroke-width="3.0" stroke-linecap="butt" d="m290.4986 204.24069l1.3034668 -14.4292755l-10.273468 10.215622z" fill-rule="evenodd"/><path fill="#000000" fill-opacity="0.0" d="m297.33792 210.8731l11.758423 -25.03122" fill-rule="evenodd"/><path stroke="#000000" stroke-width="3.0" stroke-linejoin="round" stroke-linecap="butt" d="m297.33792 210.8731l4.105255 -8.739227" fill-rule="evenodd"/><path fill="#000000" stroke="#000000" stroke-width="3.0" stroke-linecap="butt" d="m305.9282 204.24069l1.3034668 -14.4292755l-10.273468 10.215607z" fill-rule="evenodd"/><path fill="#ffffff" d="m0.6804176 310.45642l25.107754 19.628723l-25.107754 19.628754z" fill-rule="evenodd"/><path stroke="#000000" stroke-width="3.0" stroke-linejoin="round" stroke-linecap="butt" d="m0.6804176 310.45642l25.107754 19.628723l-25.107754 19.628754z" fill-rule="evenodd"/><path fill="#000000" fill-opacity="0.0" d="m25.788172 330.08514l-0.043388367 20.662842" fill-rule="evenodd"/><path stroke="#000000" stroke-width="3.0" stroke-linejoin="round" stroke-linecap="butt" d="m25.788172 330.08514l-0.043388367 20.662842" fill-rule="evenodd"/><path fill="#000000" fill-opacity="0.0" d="m25.788172 330.08514l-0.043388367 -18.613953" fill-rule="evenodd"/><path stroke="#000000" stroke-width="3.0" stroke-linejoin="round" stroke-linecap="butt" d="m25.788172 330.08514l-0.043388367 -18.613953" fill-rule="evenodd"/><path fill="#000000" fill-opacity="0.0" d="m5.362811 303.3578l11.758412 -25.03122" fill-rule="evenodd"/><path stroke="#000000" stroke-width="3.0" stroke-linejoin="round" stroke-linecap="butt" d="m5.362811 303.3578l4.105253 -8.739227" fill-rule="evenodd"/><path fill="#000000" stroke="#000000" stroke-width="3.0" stroke-linecap="butt" d="m13.953067 296.7254l1.303462 -14.429291l-10.273468 10.215607z" fill-rule="evenodd"/><path fill="#000000" fill-opacity="0.0" d="m20.792414 303.3578l11.758413 -25.03122" fill-rule="evenodd"/><path stroke="#000000" stroke-width="3.0" stroke-linejoin="round" stroke-linecap="butt" d="m20.792414 303.3578l4.105253 -8.739227" fill-rule="evenodd"/><path fill="#000000" stroke="#000000" stroke-width="3.0" stroke-linecap="butt" d="m29.38267 296.7254l1.3034611 -14.429291l-10.273468 10.215607z" fill-rule="evenodd"/><path fill="#ffffff" d="m92.34183 310.23856l25.107758 19.628754l-25.107758 19.628723z" fill-rule="evenodd"/><path stroke="#000000" stroke-width="3.0" stroke-linejoin="round" stroke-linecap="butt" d="m92.34183 310.23856l25.107758 19.628754l-25.107758 19.628723z" fill-rule="evenodd"/><path fill="#000000" fill-opacity="0.0" d="m117.449585 329.8673l-0.043388367 20.662842" fill-rule="evenodd"/><path stroke="#000000" stroke-width="3.0" stroke-linejoin="round" stroke-linecap="butt" d="m117.449585 329.8673l-0.043388367 20.662842" fill-rule="evenodd"/><path fill="#000000" fill-opacity="0.0" d="m117.449585 329.8673l-0.043388367 -18.613953" fill-rule="evenodd"/><path stroke="#000000" stroke-width="3.0" stroke-linejoin="round" stroke-linecap="butt" d="m117.449585 329.8673l-0.043388367 -18.613953" fill-rule="evenodd"/><path fill="#000000" fill-opacity="0.0" d="m97.02422 301.97678l11.758415 -25.03122" fill-rule="evenodd"/><path stroke="#000000" stroke-width="3.0" stroke-linejoin="round" stroke-linecap="butt" d="m97.02422 301.97678l4.105255 -8.739227" fill-rule="evenodd"/><path fill="#000000" stroke="#000000" stroke-width="3.0" stroke-linecap="butt" d="m105.61448 295.3444l1.3034592 -14.429291l-10.273468 10.215637z" fill-rule="evenodd"/><path fill="#000000" fill-opacity="0.0" d="m112.45383 301.97678l11.758415 -25.03122" fill-rule="evenodd"/><path stroke="#000000" stroke-width="3.0" stroke-linejoin="round" stroke-linecap="butt" d="m112.45382 301.97678l4.105255 -8.739227" fill-rule="evenodd"/><path fill="#000000" stroke="#000000" stroke-width="3.0" stroke-linecap="butt" d="m121.04408 295.3444l1.3034592 -14.429291l-10.273468 10.215637z" fill-rule="evenodd"/><path fill="#ffffff" d="m185.32301 310.45642l25.107758 19.628723l-25.107758 19.628754z" fill-rule="evenodd"/><path stroke="#000000" stroke-width="3.0" stroke-linejoin="round" stroke-linecap="butt" d="m185.32301 310.45642l25.107758 19.628723l-25.107758 19.628754z" fill-rule="evenodd"/><path fill="#000000" fill-opacity="0.0" d="m210.43077 330.08514l-0.043380737 20.662842" fill-rule="evenodd"/><path stroke="#000000" stroke-width="3.0" stroke-linejoin="round" stroke-linecap="butt" d="m210.43077 330.08514l-0.043380737 20.662842" fill-rule="evenodd"/><path fill="#000000" fill-opacity="0.0" d="m190.00542 303.3578l11.758408 -25.03122" fill-rule="evenodd"/><path stroke="#000000" stroke-width="3.0" stroke-linejoin="round" stroke-linecap="butt" d="m190.00542 303.3578l4.105255 -8.739227" fill-rule="evenodd"/><path fill="#000000" stroke="#000000" stroke-width="3.0" stroke-linecap="butt" d="m198.59567 296.7254l1.3034515 -14.429291l-10.273468 10.215637z" fill-rule="evenodd"/><path fill="#000000" fill-opacity="0.0" d="m205.43501 303.3578l11.758408 -25.03122" fill-rule="evenodd"/><path stroke="#000000" stroke-width="3.0" stroke-linejoin="round" stroke-linecap="butt" d="m205.43501 303.3578l4.105255 -8.739227" fill-rule="evenodd"/><path fill="#000000" stroke="#000000" stroke-width="3.0" stroke-linecap="butt" d="m214.02527 296.7254l1.3034668 -14.429291l-10.273468 10.215637z" fill-rule="evenodd"/><path fill="#ffffff" d="m276.94464 310.23856l25.107758 19.628754l-25.107758 19.628723z" fill-rule="evenodd"/><path stroke="#000000" stroke-width="3.0" stroke-linejoin="round" stroke-linecap="butt" d="m276.94464 310.23856l25.107758 19.628754l-25.107758 19.628723z" fill-rule="evenodd"/><path fill="#000000" fill-opacity="0.0" d="m302.0524 329.8673l-0.043395996 20.662842" fill-rule="evenodd"/><path stroke="#000000" stroke-width="3.0" stroke-linejoin="round" stroke-linecap="butt" d="m302.0524 329.8673l-0.043395996 20.662842" fill-rule="evenodd"/><path fill="#000000" fill-opacity="0.0" d="m302.0524 329.8673l-0.043395996 -18.613953" fill-rule="evenodd"/><path stroke="#000000" stroke-width="3.0" stroke-linejoin="round" stroke-linecap="butt" d="m302.0524 329.8673l-0.043395996 -18.613953" fill-rule="evenodd"/><path fill="#000000" fill-opacity="0.0" d="m281.62704 303.13995l11.758392 -25.03125" fill-rule="evenodd"/><path stroke="#000000" stroke-width="3.0" stroke-linejoin="round" stroke-linecap="butt" d="m281.62704 303.13995l4.1052246 -8.739227" fill-rule="evenodd"/><path fill="#000000" stroke="#000000" stroke-width="3.0" stroke-linecap="butt" d="m290.2173 296.50754l1.3034668 -14.42926l-10.273468 10.215607z" fill-rule="evenodd"/><path fill="#000000" fill-opacity="0.0" d="m297.05664 303.13995l11.758423 -25.03125" fill-rule="evenodd"/><path stroke="#000000" stroke-width="3.0" stroke-linejoin="round" stroke-linecap="butt" d="m297.05664 303.13995l4.105255 -8.739227" fill-rule="evenodd"/><path fill="#000000" stroke="#000000" stroke-width="3.0" stroke-linecap="butt" d="m305.64688 296.50754l1.3034668 -14.42926l-10.273468 10.215607z" fill-rule="evenodd"/></g></svg>